<svg xmlns="http://www.w3.org/2000/svg" xmlns:svg="http://www.w3.org/2000/svg" id="Layer_1" width="150" height="150" version="1.1" viewBox="0 0 150 150" xml:space="preserve"><metadata id="metadata286"/><style id="style275" type="text/css">.st0{fill:#fe7139}.st1{fill:#fff}</style><g id="g300" transform="translate(16.144385,8.872952)"><g id="g289"><path id="path277" d="M 52,4.6 9.6,29.2 c -4.9,2.9 -8,8.1 -8,13.8 v 49 c 0,5.7 3,11 8,13.8 L 52,130.4 c 4.9,2.9 11,2.9 16,0 l 42.5,-24.5 c 4.9,-2.9 8,-8.1 8,-13.8 V 43 c 0,-5.7 -3,-11 -8,-13.8 L 68,4.6 C 63,1.8 57,1.8 52,4.6 Z" class="st0"/></g><polygon id="polygon279" points="27.4 86 57.8 100.8 57.8 62.3 47.7 80 54.3 83.4 54.3 88.4 41 82.2 60 51.2 79 82.2 65.7 88.4 65.7 83.4 72.3 80 62.2 62.3 62.2 100.8 92.6 86 60 33.1" class="st1"/></g></svg>